<svg version="1.1" id="Layer_1" xmlns="http://www.w3.org/2000/svg" xmlns:xlink="http://www.w3.org/1999/xlink" x="0px" y="0px"
	 width="100%" viewBox="0 0 500 500" enable-background="new 0 0 500 500" xml:space="preserve">
<path fill="#6E993B" opacity="1.000000" stroke="none" 
	d="
M1.000000,198.000000 
	C1.000000,143.645767 1.000000,89.291542 1.341163,34.343796 
	C5.150443,22.262823 11.163782,12.579876 21.991579,6.747783 
	C26.410906,4.367436 31.315941,2.888848 36.000000,1.000000 
	C89.687561,1.000000 143.375122,1.000000 197.671631,1.344384 
	C208.007690,3.880976 215.866486,9.058937 222.875381,16.091167 
	C279.579956,72.984566 336.394897,129.767944 393.167206,186.593903 
	C394.217438,187.645126 395.157074,188.806854 395.674774,189.988525 
	C385.563110,189.788773 375.925507,189.498901 366.286804,189.249802 
	C340.189178,188.575256 314.091522,187.900436 287.993073,187.258759 
	C259.900085,186.568008 231.807724,185.826263 203.711029,185.342575 
	C199.593796,185.271698 197.547623,183.980011 196.067520,180.107971 
	C187.220657,156.963989 178.040359,133.947525 169.175934,110.810127 
	C167.030350,105.209869 163.281052,102.165535 157.551666,101.210587 
	C149.030151,99.790291 140.492691,98.458336 131.991425,96.925636 
	C121.896065,95.105530 111.831871,93.112518 101.834518,90.810211 
	C102.326424,89.517906 102.742470,88.611816 103.148888,87.701424 
	C109.983612,72.391739 104.162598,54.891838 89.552017,46.821430 
	C75.402878,39.005905 57.057362,43.551529 48.159843,57.379192 
	C40.854465,68.732521 40.967686,80.624290 48.243114,91.717880 
	C56.035004,103.598976 67.637428,107.889709 81.809151,105.763359 
	C83.767029,110.666786 87.053276,113.336601 91.907990,114.164505 
	C108.939896,117.069069 125.942955,120.152359 143.006592,122.854370 
	C147.081741,123.499664 149.363724,125.004738 150.907288,128.973969 
	C179.057755,201.362564 207.341278,273.699402 235.620483,346.037903 
	C239.562836,356.122467 239.443253,355.881775 231.070602,362.728088 
	C217.420609,373.889771 201.307861,382.679749 193.694839,400.028992 
	C137.799576,344.347107 82.238297,288.775269 26.632704,233.247849 
	C16.210707,222.840500 4.839082,213.172836 1.000000,198.000000 
z"/>
<path fill="#FFFFFF" opacity="1.000000" stroke="none" 
	d="
M1.000000,198.468658 
	C4.839082,213.172836 16.210707,222.840500 26.632704,233.247849 
	C82.238297,288.775269 137.799576,344.347107 193.706207,400.420898 
	C191.340012,411.532288 191.102036,421.935730 198.884552,430.579468 
	C203.503281,435.709290 209.142548,439.920258 214.093918,444.339935 
	C198.975784,452.272888 193.345810,465.677094 200.317200,478.655060 
	C206.694992,490.528046 221.822189,494.958984 233.431091,488.198822 
	C241.026855,483.775604 245.092773,477.070221 245.513199,468.219208 
	C245.936478,459.307526 241.452789,452.703796 234.901550,447.056335 
	C302.176819,447.056335 368.846985,447.056335 436.067841,447.056335 
	C424.050629,458.895782 422.305969,472.063446 430.893311,482.480713 
	C438.836548,492.116638 452.668152,494.312988 462.819275,487.375458 
	C469.721832,482.658081 473.336212,476.045807 473.526581,467.589691 
	C473.713928,459.268280 469.484436,453.033447 463.019714,447.062378 
	C470.025177,447.062378 475.863922,447.283569 481.677826,446.998108 
	C487.127960,446.730469 491.330811,442.584290 492.187012,437.314819 
	C493.061615,431.932190 490.493011,426.775146 485.423889,424.744110 
	C483.188171,423.848358 480.582642,423.556671 478.141510,423.541077 
	C449.000031,423.354614 419.857971,423.240997 390.715881,423.168518 
	C337.080231,423.035156 283.444427,422.967041 229.809097,422.756836 
	C227.161804,422.746429 224.518799,421.642670 222.331833,420.899597 
	C236.667053,422.396301 249.907181,420.909210 260.394989,410.688416 
	C276.799347,394.701630 292.800415,378.301056 309.403534,361.998291 
	C323.256165,360.836395 336.677185,359.746918 350.099060,358.668518 
	C390.038605,355.459503 429.975098,352.210999 469.920715,349.079529 
	C479.894470,348.297638 483.495178,345.279419 484.712341,335.243500 
	C489.236145,297.942902 493.623047,260.625671 498.162201,223.326965 
	C498.828674,217.850632 500.040527,212.440674 501.000000,207.000000 
	C501.000000,304.960907 501.000000,402.921783 501.000000,500.941345 
	C334.438965,500.941345 167.877884,500.941345 1.000000,500.941345 
	C1.000000,400.312653 1.000000,299.625000 1.000000,198.468658 
z"/>
<path fill="#252222" opacity="1.000000" stroke="none" 
	d="
M221.873795,421.048035 
	C224.518799,421.642670 227.161804,422.746429 229.809097,422.756836 
	C283.444427,422.967041 337.080231,423.035156 390.715881,423.168518 
	C419.857971,423.240997 449.000031,423.354614 478.141510,423.541077 
	C480.582642,423.556671 483.188171,423.848358 485.423889,424.744110 
	C490.493011,426.775146 493.061615,431.932190 492.187012,437.314819 
	C491.330811,442.584290 487.127960,446.730469 481.677826,446.998108 
	C475.863922,447.283569 470.025177,447.062378 463.019714,447.062378 
	C469.484436,453.033447 473.713928,459.268280 473.526581,467.589691 
	C473.336212,476.045807 469.721832,482.658081 462.819275,487.375458 
	C452.668152,494.312988 438.836548,492.116638 430.893311,482.480713 
	C422.305969,472.063446 424.050629,458.895782 436.067841,447.056335 
	C368.846985,447.056335 302.176819,447.056335 234.901550,447.056335 
	C241.452789,452.703796 245.936478,459.307526 245.513199,468.219208 
	C245.092773,477.070221 241.026855,483.775604 233.431091,488.198822 
	C221.822189,494.958984 206.694992,490.528046 200.317200,478.655060 
	C193.345810,465.677094 198.975784,452.272888 214.093918,444.339935 
	C209.142548,439.920258 203.503281,435.709290 198.884552,430.579468 
	C191.102036,421.935730 191.340012,411.532288 194.024872,400.546326 
	C201.307861,382.679749 217.420609,373.889771 231.070602,362.728088 
	C239.443253,355.881775 239.562836,356.122467 235.620483,346.037903 
	C207.341278,273.699402 179.057755,201.362564 150.907288,128.973969 
	C149.363724,125.004738 147.081741,123.499664 143.006592,122.854370 
	C125.942955,120.152359 108.939896,117.069069 91.907990,114.164505 
	C87.053276,113.336601 83.767029,110.666786 81.921005,105.380783 
	C82.051231,93.501099 85.792259,90.094315 96.827644,90.992470 
	C98.464455,91.125687 100.111732,91.130310 101.754173,91.194427 
	C111.831871,93.112518 121.896065,95.105530 131.991425,96.925636 
	C140.492691,98.458336 149.030151,99.790291 157.551666,101.210587 
	C163.281052,102.165535 167.030350,105.209869 169.175934,110.810127 
	C178.040359,133.947525 187.220657,156.963989 196.067520,180.107971 
	C197.547623,183.980011 199.593796,185.271698 203.711029,185.342575 
	C231.807724,185.826263 259.900085,186.568008 287.993073,187.258759 
	C314.091522,187.900436 340.189178,188.575256 366.286804,189.249802 
	C375.925507,189.498901 385.563110,189.788773 396.126282,190.057617 
	C426.292419,190.866806 455.530121,191.925674 484.776886,192.332108 
	C493.035400,192.446869 498.197388,195.473816 501.000000,203.000000 
	C501.000000,204.066666 501.000000,205.133347 501.000000,206.600006 
	C500.040527,212.440674 498.828674,217.850632 498.162201,223.326965 
	C493.623047,260.625671 489.236145,297.942902 484.712341,335.243500 
	C483.495178,345.279419 479.894470,348.297638 469.920715,349.079529 
	C429.975098,352.210999 390.038605,355.459503 350.099060,358.668518 
	C336.677185,359.746918 323.256165,360.836395 308.972870,361.953644 
	C298.358246,362.711395 288.547394,363.010345 278.875549,364.328705 
	C273.494171,365.062225 267.732208,363.688721 262.722076,367.819916 
	C250.308151,378.056061 237.299286,387.575592 224.987686,397.927948 
	C221.387436,400.955231 218.765869,405.553131 216.738922,409.915802 
	C215.121872,413.396271 215.989090,417.350311 219.741364,420.295776 
	C220.644165,420.774689 221.335907,420.947845 222.007904,421.063354 
	C221.988129,421.005676 221.873795,421.048035 221.873795,421.048035 
M420.064697,246.458130 
	C426.646423,246.458130 433.228180,246.458130 439.820740,246.458130 
	C439.820740,233.860596 439.820740,221.916870 439.820740,208.976807 
	C431.384155,208.976807 423.109131,208.976807 413.932770,208.846313 
	C410.447357,208.819199 406.959656,208.860107 403.477356,208.741943 
	C401.003265,208.657959 399.857574,209.544449 399.878387,212.176041 
	C399.958313,222.303589 399.973206,232.432846 399.865662,242.559906 
	C399.835358,245.410492 400.985779,246.342987 403.710419,246.279572 
	C408.854370,246.159866 414.003387,246.259216 420.064697,246.458130 
M369.062256,300.904755 
	C363.190643,300.904755 357.319031,300.904755 351.111633,300.904755 
	C351.111633,307.797150 351.111633,313.875732 351.011810,320.890747 
	C351.011810,325.632874 351.011810,330.375000 351.011810,335.387543 
	C364.798157,334.291840 377.835876,333.255615 390.797485,332.225464 
	C390.797485,321.423126 390.797485,311.207916 390.797485,301.033264 
	C383.618805,301.033264 376.803314,301.033264 369.062256,300.904755 
M399.899170,271.907593 
	C399.899170,278.655823 399.899170,285.404053 399.899170,292.255920 
	C413.531311,292.255920 426.603882,292.255920 439.630127,292.255920 
	C439.630127,279.643768 439.630127,267.288513 439.630127,255.142578 
	C430.954132,255.142578 422.651642,255.142578 413.373199,254.995682 
	C399.900818,254.658783 399.898529,254.658783 399.920258,268.028168 
	C399.921844,269.010406 399.990662,269.992523 399.899170,271.907593 
M391.164551,279.893524 
	C391.143341,273.079102 390.973175,266.260468 391.163971,259.451996 
	C391.258789,256.067871 390.296509,254.646484 386.702057,254.834290 
	C381.729309,255.094116 376.732727,254.898315 371.746368,254.898117 
	C364.997192,254.897842 358.247986,254.898041 351.390320,254.898041 
	C351.390320,267.678955 351.390320,279.704681 351.390320,292.539551 
	C361.165192,292.539551 370.564545,292.539551 380.904480,292.498047 
	C384.166687,292.498047 387.428894,292.498047 391.016571,292.498047 
	C391.016571,288.316559 391.016571,284.556091 391.164551,279.893524 
M342.887878,328.087463 
	C342.887878,319.163452 342.887878,310.239441 342.887878,300.923309 
	C329.911163,300.923309 317.773712,300.827820 305.644592,301.101135 
	C304.653656,301.123444 302.932220,303.636627 302.888062,305.034637 
	C302.625427,313.353516 302.756561,321.684814 302.755646,330.011963 
	C302.755310,332.914551 302.755585,335.817139 302.755585,339.103333 
	C314.192383,338.275177 324.622009,337.519958 335.908936,336.747192 
	C338.130493,336.478027 340.352081,336.208832 342.790100,335.913452 
	C342.790100,333.501617 342.790100,331.261902 342.887878,328.087463 
M257.703949,204.989914 
	C255.401703,204.723068 253.861496,205.184845 253.879517,208.049606 
	C253.952713,219.685684 253.823318,231.324188 254.049774,242.956314 
	C254.071411,244.068176 256.027496,246.068344 257.117554,246.090652 
	C268.416840,246.321808 279.723602,246.292969 291.025116,246.122620 
	C292.013275,246.107742 293.816315,244.588669 293.828674,243.747482 
	C294.011261,231.335388 293.954529,218.919769 293.954529,206.001480 
	C281.806824,205.657028 270.234039,205.328888 257.703949,204.989914 
M309.578857,246.252762 
	C318.901764,246.252579 328.229553,246.076294 337.545319,246.333923 
	C341.597595,246.445984 343.119812,245.344254 342.978882,241.065063 
	C342.677612,231.918564 342.886871,222.755249 342.886963,213.598831 
	C342.886993,211.516602 342.886963,209.434357 342.886963,206.686737 
	C329.127625,206.686737 316.239990,206.686737 302.750854,206.686737 
	C302.750854,217.983124 302.978058,229.267349 302.642792,240.534836 
	C302.502045,245.266068 304.132721,246.928940 309.578857,246.252762 
M287.713562,340.229034 
	C289.651581,340.068451 291.589600,339.907867 293.554138,339.745087 
	C293.554138,326.616608 293.554138,313.935608 293.554138,300.918213 
	C280.992096,300.918213 268.864197,300.860229 256.739563,301.030731 
	C255.792572,301.044037 254.128433,302.587952 254.044159,303.531769 
	C252.812714,317.324860 254.273788,330.623352 261.994934,342.559296 
	C270.280243,341.802338 278.539673,341.047729 287.713562,340.229034 
M381.464203,246.250961 
	C382.628143,246.250839 383.821259,246.082870 384.951050,246.279312 
	C390.207916,247.193298 391.419220,244.796616 391.210144,239.897095 
	C390.834778,231.100342 390.835297,222.264511 391.214111,213.468063 
	C391.412354,208.864944 389.678925,207.831650 385.504364,207.927612 
	C377.530853,208.110931 369.545868,207.880753 361.567474,207.727615 
	C358.188232,207.662750 354.813568,207.359116 351.348267,207.158890 
	C351.348267,220.527298 351.348267,233.081741 351.348267,246.251587 
	C361.278992,246.251587 370.877319,246.251587 381.464203,246.250961 
M315.510681,254.893768 
	C312.679718,254.894638 309.837433,255.054977 307.020782,254.854568 
	C303.765717,254.622940 302.642426,255.880814 302.696564,259.145844 
	C302.856659,268.801758 302.822144,278.462769 302.713654,288.120117 
	C302.680908,291.035980 303.574951,292.330139 306.693359,292.294769 
	C317.516205,292.172089 328.341888,292.186798 339.165161,292.288452 
	C342.009216,292.315155 342.945801,291.192657 342.919067,288.444092 
	C342.823517,278.619965 342.759125,268.791870 342.951324,258.970551 
	C343.019257,255.499512 341.560913,254.779251 338.488708,254.844727 
	C331.164856,255.000732 323.835419,254.894104 315.510681,254.893768 
M293.995728,280.480591 
	C293.995728,272.080872 293.995728,263.681122 293.995728,254.913330 
	C281.062042,254.913330 268.955475,254.831177 256.854950,255.064178 
	C255.850494,255.083527 254.061630,257.214966 254.034393,258.397308 
	C253.804932,268.359283 253.985840,278.329956 253.849152,288.295319 
	C253.806976,291.371246 254.983017,292.323669 257.943268,292.291901 
	C268.905975,292.174255 279.870697,292.252380 290.834473,292.209259 
	C291.760162,292.205597 292.684448,291.847260 293.995728,291.572845 
	C293.995728,288.066162 293.995728,284.769684 293.995728,280.480591 
M215.711487,225.816559 
	C218.390121,232.416199 221.068756,239.015839 223.747391,245.615479 
	C229.353134,245.826752 234.958878,246.038193 240.564651,246.248383 
	C240.730591,246.254623 240.899155,246.230087 241.062897,246.249756 
	C244.401077,246.650253 245.338440,245.015991 245.294434,241.877197 
	C245.159302,232.239441 245.247406,222.598541 245.247604,212.958862 
	C245.247757,205.391068 245.270340,204.907745 237.953262,204.554520 
	C228.080627,204.077927 218.167709,204.436157 207.360764,204.436157 
	C210.153610,211.624390 212.773834,218.368317 215.711487,225.816559 
M450.068848,246.491440 
	C459.285797,246.491440 468.502747,246.491440 477.766602,246.491440 
	C479.259430,234.139847 480.663757,222.520523 482.136627,210.334167 
	C470.515594,210.334167 459.500183,210.334167 448.180969,210.334167 
	C448.180969,221.921219 448.167938,233.354355 448.222931,244.787155 
	C448.225403,245.306549 448.841309,245.822998 450.068848,246.491440 
M406.541321,300.839478 
	C404.432587,300.839478 402.323853,300.839478 400.073029,300.839478 
	C400.073029,311.243317 400.073029,321.142426 400.073029,331.465088 
	C413.479218,330.406372 426.618530,329.368713 439.705048,328.335236 
	C439.705048,318.870789 439.705048,309.966370 439.705048,300.839478 
	C428.787445,300.839478 418.161560,300.839478 406.541321,300.839478 
M448.155243,286.317261 
	C448.155243,288.243988 448.155243,290.170685 448.155243,292.303497 
	C456.381134,292.303497 463.995209,292.303497 472.193420,292.303497 
	C473.694397,280.032867 475.200623,267.719421 476.736969,255.160019 
	C467.217957,255.160019 457.853638,255.160019 448.155243,255.160019 
	C448.155243,265.446716 448.155243,275.401886 448.155243,286.317261 
M466.374817,300.826416 
	C460.436829,300.826416 454.498810,300.826416 448.367523,300.826416 
	C448.367523,309.979004 448.367523,318.562195 448.367523,327.633820 
	C455.118988,327.088715 461.619049,326.563873 468.146942,326.036774 
	C469.181000,317.418060 470.145386,309.380066 471.149109,301.014404 
	C469.598236,300.937927 468.468231,300.882233 466.374817,300.826416 
M233.612961,460.054810 
	C227.640137,452.446106 218.986160,451.101074 212.363235,456.752197 
	C206.381714,461.855957 205.802902,470.989441 211.089859,476.844666 
	C215.575073,481.811981 223.075974,482.912872 228.849731,479.451263 
	C235.231842,475.624939 237.137878,468.656464 233.612961,460.054810 
M444.131104,454.353027 
	C443.265961,454.847931 442.353241,455.275635 441.543335,455.848633 
	C436.111359,459.691620 434.015259,466.569977 436.391541,472.636871 
	C438.765533,478.697998 444.969971,482.174377 451.669281,481.197113 
	C458.259460,480.235748 463.036987,475.118835 463.602936,468.415771 
	C464.445251,458.439087 455.703674,451.755280 444.131104,454.353027 
M231.285980,266.209778 
	C234.372375,274.083740 237.370529,281.994659 240.638947,289.792328 
	C241.137421,290.981598 242.886902,291.646545 244.057770,292.553986 
	C244.624054,291.486847 245.669708,290.425323 245.682297,289.351685 
	C245.804794,278.895233 245.820923,268.435638 245.649490,257.980530 
	C245.632584,256.949524 244.209381,255.105316 243.364151,255.060883 
	C238.170059,254.787827 232.954483,254.924026 227.072601,254.924026 
	C228.606583,259.010895 229.820663,262.245514 231.285980,266.209778 
z"/>
<path fill="#FFFFFF" opacity="1.000000" stroke="none" 
	d="
M501.000000,202.531342 
	C498.197388,195.473816 493.035400,192.446869 484.776886,192.332108 
	C455.530121,191.925674 426.292419,190.866806 396.599792,189.986115 
	C395.157074,188.806854 394.217438,187.645126 393.167206,186.593903 
	C336.394897,129.767944 279.579956,72.984566 222.875381,16.091167 
	C215.866486,9.058937 208.007690,3.880976 198.140289,1.344384 
	C298.912445,1.000000 399.824890,1.000000 501.000000,1.000000 
	C501.000000,68.020668 501.000000,135.041672 501.000000,202.531342 
z"/>
<path fill="#FDFEFC" opacity="1.000000" stroke="none" 
	d="
M35.531342,1.000000 
	C31.315941,2.888848 26.410906,4.367436 21.991579,6.747783 
	C11.163782,12.579876 5.150443,22.262823 1.341163,33.875137 
	C1.000000,23.071266 1.000000,12.142533 1.000000,1.000000 
	C12.353334,1.000000 23.708008,1.000000 35.531342,1.000000 
z"/>
<path fill="#FEFEFD" opacity="1.000000" stroke="none" 
	d="
M101.834518,90.810204 
	C100.111732,91.130310 98.464455,91.125687 96.827644,90.992470 
	C85.792259,90.094315 82.051231,93.501099 81.779419,105.018402 
	C67.637428,107.889709 56.035004,103.598976 48.243114,91.717880 
	C40.967686,80.624290 40.854465,68.732521 48.159843,57.379192 
	C57.057362,43.551529 75.402878,39.005905 89.552017,46.821430 
	C104.162598,54.891838 109.983612,72.391739 103.148888,87.701424 
	C102.742470,88.611816 102.326424,89.517906 101.834518,90.810204 
z"/>
<path fill="#6F993C" opacity="1.000000" stroke="none" 
	d="
M219.530304,419.990021 
	C215.989090,417.350311 215.121872,413.396271 216.738922,409.915802 
	C218.765869,405.553131 221.387436,400.955231 224.987686,397.927948 
	C237.299286,387.575592 250.308151,378.056061 262.722076,367.819916 
	C267.732208,363.688721 273.494171,365.062225 278.875549,364.328705 
	C288.547394,363.010345 298.358246,362.711395 308.541656,362.031128 
	C292.800415,378.301056 276.799347,394.701630 260.394989,410.688416 
	C249.907181,420.909210 236.667053,422.396301 222.331833,420.899597 
	C221.873795,421.048035 221.988129,421.005676 221.895569,420.694275 
	C221.045441,420.251923 220.287872,420.120972 219.530304,419.990021 
z"/>
<path fill="#6D973B" opacity="1.000000" stroke="none" 
	d="
M258.182617,204.995331 
	C270.234039,205.328888 281.806824,205.657028 293.954529,206.001480 
	C293.954529,218.919769 294.011261,231.335388 293.828674,243.747482 
	C293.816315,244.588669 292.013275,246.107742 291.025116,246.122620 
	C279.723602,246.292969 268.416840,246.321808 257.117554,246.090652 
	C256.027496,246.068344 254.071411,244.068176 254.049774,242.956314 
	C253.823318,231.324188 253.952713,219.685684 253.879517,208.049606 
	C253.861496,205.184845 255.401703,204.723068 258.182617,204.995331 
z"/>
<path fill="#6D973A" opacity="1.000000" stroke="none" 
	d="
M309.091278,246.253021 
	C304.132721,246.928940 302.502045,245.266068 302.642792,240.534836 
	C302.978058,229.267349 302.750854,217.983124 302.750854,206.686737 
	C316.239990,206.686737 329.127625,206.686737 342.886963,206.686737 
	C342.886963,209.434357 342.886993,211.516602 342.886963,213.598831 
	C342.886871,222.755249 342.677612,231.918564 342.978882,241.065063 
	C343.119812,245.344254 341.597595,246.445984 337.545319,246.333923 
	C328.229553,246.076294 318.901764,246.252579 309.091278,246.253021 
z"/>
<path fill="#6E983B" opacity="1.000000" stroke="none" 
	d="
M287.256348,340.261078 
	C278.539673,341.047729 270.280243,341.802338 261.994934,342.559296 
	C254.273788,330.623352 252.812714,317.324860 254.044159,303.531769 
	C254.128433,302.587952 255.792572,301.044037 256.739563,301.030731 
	C268.864197,300.860229 280.992096,300.918213 293.554138,300.918213 
	C293.554138,313.935608 293.554138,326.616608 293.554138,339.745087 
	C291.589600,339.907867 289.651581,340.068451 287.256348,340.261078 
z"/>
<path fill="#6D973B" opacity="1.000000" stroke="none" 
	d="
M380.969910,246.251282 
	C370.877319,246.251587 361.278992,246.251587 351.348267,246.251587 
	C351.348267,233.081741 351.348267,220.527298 351.348267,207.158890 
	C354.813568,207.359116 358.188232,207.662750 361.567474,207.727615 
	C369.545868,207.880753 377.530853,208.110931 385.504364,207.927612 
	C389.678925,207.831650 391.412354,208.864944 391.214111,213.468063 
	C390.835297,222.264511 390.834778,231.100342 391.210144,239.897095 
	C391.419220,244.796616 390.207916,247.193298 384.951050,246.279312 
	C383.821259,246.082870 382.628143,246.250839 380.969910,246.251282 
z"/>
<path fill="#6D973A" opacity="1.000000" stroke="none" 
	d="
M316.009460,254.893646 
	C323.835419,254.894104 331.164856,255.000732 338.488708,254.844727 
	C341.560913,254.779251 343.019257,255.499512 342.951324,258.970551 
	C342.759125,268.791870 342.823517,278.619965 342.919067,288.444092 
	C342.945801,291.192657 342.009216,292.315155 339.165161,292.288452 
	C328.341888,292.186798 317.516205,292.172089 306.693359,292.294769 
	C303.574951,292.330139 302.680908,291.035980 302.713654,288.120117 
	C302.822144,278.462769 302.856659,268.801758 302.696564,259.145844 
	C302.642426,255.880814 303.765717,254.622940 307.020782,254.854568 
	C309.837433,255.054977 312.679718,254.894638 316.009460,254.893646 
z"/>
<path fill="#6D973B" opacity="1.000000" stroke="none" 
	d="
M293.995728,280.976898 
	C293.995728,284.769684 293.995728,288.066162 293.995728,291.572845 
	C292.684448,291.847260 291.760162,292.205597 290.834473,292.209259 
	C279.870697,292.252380 268.905975,292.174255 257.943268,292.291901 
	C254.983017,292.323669 253.806976,291.371246 253.849152,288.295319 
	C253.985840,278.329956 253.804932,268.359283 254.034393,258.397308 
	C254.061630,257.214966 255.850494,255.083527 256.854950,255.064178 
	C268.955475,254.831177 281.062042,254.913330 293.995728,254.913330 
	C293.995728,263.681122 293.995728,272.080872 293.995728,280.976898 
z"/>
<path fill="#6E983B" opacity="1.000000" stroke="none" 
	d="
M335.051636,336.764740 
	C324.622009,337.519958 314.192383,338.275177 302.755585,339.103333 
	C302.755585,335.817139 302.755310,332.914551 302.755646,330.011963 
	C302.756561,321.684814 302.625427,313.353516 302.888062,305.034637 
	C302.932220,303.636627 304.653656,301.123444 305.644592,301.101135 
	C317.773712,300.827820 329.911163,300.923309 342.887878,300.923309 
	C342.887878,310.239441 342.887878,319.163452 342.544647,328.683289 
	C339.818146,331.774292 337.434875,334.269501 335.051636,336.764740 
z"/>
<path fill="#6E973C" opacity="1.000000" stroke="none" 
	d="
M379.963867,292.539551 
	C370.564545,292.539551 361.165192,292.539551 351.390320,292.539551 
	C351.390320,279.704681 351.390320,267.678955 351.390320,254.898041 
	C358.247986,254.898041 364.997192,254.897842 371.746368,254.898117 
	C376.732727,254.898315 381.729309,255.094116 386.702057,254.834290 
	C390.296509,254.646484 391.258789,256.067871 391.163971,259.451996 
	C390.973175,266.260468 391.143341,273.079102 390.760132,280.448120 
	C386.891754,284.848358 383.427826,288.693939 379.963867,292.539551 
z"/>
<path fill="#FCFCFC" opacity="1.000000" stroke="none" 
	d="
M414.349182,255.142578 
	C422.651642,255.142578 430.954132,255.142578 439.630127,255.142578 
	C439.630127,267.288513 439.630127,279.643768 439.630127,292.255920 
	C426.603882,292.255920 413.531311,292.255920 399.899170,292.255920 
	C399.899170,285.404053 399.899170,278.655823 400.247803,271.276672 
	C405.180664,265.478058 409.764923,260.310303 414.349182,255.142578 
z"/>
<path fill="#6D973B" opacity="1.000000" stroke="none" 
	d="
M215.552765,225.464401 
	C212.773834,218.368317 210.153610,211.624390 207.360764,204.436157 
	C218.167709,204.436157 228.080627,204.077927 237.953262,204.554520 
	C245.270340,204.907745 245.247757,205.391068 245.247604,212.958862 
	C245.247406,222.598541 245.159302,232.239441 245.294434,241.877197 
	C245.338440,245.015991 244.401077,246.650253 241.062897,246.249756 
	C240.899155,246.230087 240.730591,246.254623 240.564651,246.248383 
	C234.958878,246.038193 229.353134,245.826752 223.747391,245.615479 
	C221.068756,239.015839 218.390121,232.416199 215.552765,225.464401 
z"/>
<path fill="#FAFAFA" opacity="1.000000" stroke="none" 
	d="
M449.620178,246.416138 
	C448.841309,245.822998 448.225403,245.306549 448.222931,244.787155 
	C448.167938,233.354355 448.180969,221.921219 448.180969,210.334167 
	C459.500183,210.334167 470.515594,210.334167 482.136627,210.334167 
	C480.663757,222.520523 479.259430,234.139847 477.766602,246.491440 
	C468.502747,246.491440 459.285797,246.491440 449.620178,246.416138 
z"/>
<path fill="#FEFEFE" opacity="1.000000" stroke="none" 
	d="
M407.038483,300.839478 
	C418.161560,300.839478 428.787445,300.839478 439.705048,300.839478 
	C439.705048,309.966370 439.705048,318.870789 439.705048,328.335236 
	C426.618530,329.368713 413.479218,330.406372 400.073029,331.465088 
	C400.073029,321.142426 400.073029,311.243317 400.073029,300.839478 
	C402.323853,300.839478 404.432587,300.839478 407.038483,300.839478 
z"/>
<path fill="#FEFEFE" opacity="1.000000" stroke="none" 
	d="
M369.987793,301.033264 
	C376.803314,301.033264 383.618805,301.033264 390.797485,301.033264 
	C390.797485,311.207916 390.797485,321.423126 390.797485,332.225464 
	C377.835876,333.255615 364.798157,334.291840 351.011810,335.387543 
	C351.011810,330.375000 351.011810,325.632874 351.336761,320.257599 
	C357.770416,313.427399 363.879089,307.230316 369.987793,301.033264 
z"/>
<path fill="#F9F9F9" opacity="1.000000" stroke="none" 
	d="
M448.155243,285.837158 
	C448.155243,275.401886 448.155243,265.446716 448.155243,255.160019 
	C457.853638,255.160019 467.217957,255.160019 476.736969,255.160019 
	C475.200623,267.719421 473.694397,280.032867 472.193420,292.303497 
	C463.995209,292.303497 456.381134,292.303497 448.155243,292.303497 
	C448.155243,290.170685 448.155243,288.243988 448.155243,285.837158 
z"/>
<path fill="#FDFDFC" opacity="1.000000" stroke="none" 
	d="
M414.834106,208.976807 
	C423.109131,208.976807 431.384155,208.976807 439.820740,208.976807 
	C439.820740,221.916870 439.820740,233.860596 439.820740,246.458130 
	C433.228180,246.458130 426.646423,246.458130 419.708252,245.916122 
	C423.193481,232.577927 421.238922,220.501175 414.834106,208.976807 
z"/>
<path fill="#6E973E" opacity="1.000000" stroke="none" 
	d="
M414.383423,208.911560 
	C421.238922,220.501175 423.193481,232.577927 419.251068,245.820816 
	C414.003387,246.259216 408.854370,246.159866 403.710419,246.279572 
	C400.985779,246.342987 399.835358,245.410492 399.865662,242.559906 
	C399.973206,232.432846 399.958313,222.303589 399.878387,212.176041 
	C399.857574,209.544449 401.003265,208.657959 403.477356,208.741943 
	C406.959656,208.860107 410.447357,208.819199 414.383423,208.911560 
z"/>
<path fill="#F9F9F9" opacity="1.000000" stroke="none" 
	d="
M466.856537,300.826477 
	C468.468231,300.882233 469.598236,300.937927 471.149109,301.014404 
	C470.145386,309.380066 469.181000,317.418060 468.146942,326.036774 
	C461.619049,326.563873 455.118988,327.088715 448.367523,327.633820 
	C448.367523,318.562195 448.367523,309.979004 448.367523,300.826416 
	C454.498810,300.826416 460.436829,300.826416 466.856537,300.826477 
z"/>
<path fill="#F6F6F6" opacity="1.000000" stroke="none" 
	d="
M233.793060,460.387390 
	C237.137878,468.656464 235.231842,475.624939 228.849731,479.451263 
	C223.075974,482.912872 215.575073,481.811981 211.089859,476.844666 
	C205.802902,470.989441 206.381714,461.855957 212.363235,456.752197 
	C218.986160,451.101074 227.640137,452.446106 233.793060,460.387390 
M219.894974,475.039551 
	C224.249374,475.677612 227.512543,474.057587 228.802979,469.844482 
	C229.932083,466.158203 228.617645,462.981293 225.152832,461.003326 
	C221.455719,458.892761 217.042160,460.222321 214.949600,463.973145 
	C212.610031,468.166718 213.934937,471.656830 219.894974,475.039551 
z"/>
<path fill="#F6F5F5" opacity="1.000000" stroke="none" 
	d="
M444.493469,454.217407 
	C455.703674,451.755280 464.445251,458.439087 463.602936,468.415771 
	C463.036987,475.118835 458.259460,480.235748 451.669281,481.197113 
	C444.969971,482.174377 438.765533,478.697998 436.391541,472.636871 
	C434.015259,466.569977 436.111359,459.691620 441.543335,455.848633 
	C442.353241,455.275635 443.265961,454.847931 444.493469,454.217407 
M442.040649,469.145844 
	C444.644287,475.028595 449.848969,477.051483 454.071289,473.734711 
	C456.995544,471.437592 457.954590,468.311157 456.583984,464.897339 
	C455.135437,461.289581 452.133667,459.431915 448.270905,460.186646 
	C444.023102,461.016602 441.778229,463.850098 442.040649,469.145844 
z"/>
<path fill="#6A9239" opacity="1.000000" stroke="none" 
	d="
M231.160355,265.844940 
	C229.820663,262.245514 228.606583,259.010895 227.072601,254.924026 
	C232.954483,254.924026 238.170059,254.787827 243.364151,255.060883 
	C244.209381,255.105316 245.632584,256.949524 245.649490,257.980530 
	C245.820923,268.435638 245.804794,278.895233 245.682297,289.351685 
	C245.669708,290.425323 244.624054,291.486847 244.057770,292.553986 
	C242.886902,291.646545 241.137421,290.981598 240.638947,289.792328 
	C237.370529,281.994659 234.372375,274.083740 231.160355,265.844940 
z"/>
<path fill="#729C41" opacity="1.000000" stroke="none" 
	d="
M369.525024,300.968994 
	C363.879089,307.230316 357.770416,313.427399 351.386658,319.789368 
	C351.111633,313.875732 351.111633,307.797150 351.111633,300.904755 
	C357.319031,300.904755 363.190643,300.904755 369.525024,300.968994 
z"/>
<path fill="#729C41" opacity="1.000000" stroke="none" 
	d="
M413.861206,255.069122 
	C409.764923,260.310303 405.180664,265.478058 400.312317,270.810242 
	C399.990662,269.992523 399.921844,269.010406 399.920258,268.028168 
	C399.898529,254.658783 399.900818,254.658783 413.861206,255.069122 
z"/>
<path fill="#FFFFFF" opacity="1.000000" stroke="none" 
	d="
M380.434174,292.518799 
	C383.427826,288.693939 386.891754,284.848358 390.686157,280.899200 
	C391.016571,284.556091 391.016571,288.316559 391.016571,292.498047 
	C387.428894,292.498047 384.166687,292.498047 380.434174,292.518799 
z"/>
<path fill="#E7E6E6" opacity="1.000000" stroke="none" 
	d="
M335.480286,336.755981 
	C337.434875,334.269501 339.818146,331.774292 342.495758,329.150635 
	C342.790100,331.261902 342.790100,333.501617 342.790100,335.913452 
	C340.352081,336.208832 338.130493,336.478027 335.480286,336.755981 
z"/>
<path fill="#FFFFFF" opacity="1.000000" stroke="none" 
	d="
M219.741364,420.295776 
	C220.287872,420.120972 221.045441,420.251923 221.915344,420.751953 
	C221.335907,420.947845 220.644165,420.774689 219.741364,420.295776 
z"/>
<path fill="#282425" opacity="1.000000" stroke="none" 
	d="
M219.495972,474.968964 
	C213.934937,471.656830 212.610031,468.166718 214.949600,463.973145 
	C217.042160,460.222321 221.455719,458.892761 225.152832,461.003326 
	C228.617645,462.981293 229.932083,466.158203 228.802979,469.844482 
	C227.512543,474.057587 224.249374,475.677612 219.495972,474.968964 
z"/>
<path fill="#272425" opacity="1.000000" stroke="none" 
	d="
M442.017395,468.746185 
	C441.778229,463.850098 444.023102,461.016602 448.270905,460.186646 
	C452.133667,459.431915 455.135437,461.289581 456.583984,464.897339 
	C457.954590,468.311157 456.995544,471.437592 454.071289,473.734711 
	C449.848969,477.051483 444.644287,475.028595 442.017395,468.746185 
z"/>
</svg>